<mxfile host="app.diagrams.net" modified="2023-07-03T13:42:43.560Z" agent="Mozilla/5.0 (Windows NT 10.0; Win64; x64) AppleWebKit/537.36 (KHTML, like Gecko) Chrome/114.0.0.0 Safari/537.36 Edg/114.0.1823.67" etag="0orot429vWriGHNq-w_Z" version="21.5.2" type="device">
  <diagram name="Page-1" id="90a13364-a465-7bf4-72fc-28e22215d7a0">
    <mxGraphModel dx="830" dy="484" grid="1" gridSize="10" guides="1" tooltips="1" connect="1" arrows="1" fold="1" page="1" pageScale="1.5" pageWidth="1169" pageHeight="826" background="none" math="0" shadow="0">
      <root>
        <mxCell id="0" style=";html=1;" />
        <mxCell id="1" style=";html=1;" parent="0" />
        <mxCell id="3a17f1ce550125da-2" value="STC89C52单片机" style="whiteSpace=wrap;html=1;shadow=1;fontSize=18;fillColor=#f5f5f5;strokeColor=#666666;" parent="1" vertex="1">
          <mxGeometry x="787" y="454" width="170" height="280" as="geometry" />
        </mxCell>
        <mxCell id="3a17f1ce550125da-4" value="12864液晶显示" style="whiteSpace=wrap;html=1;shadow=1;fontSize=18;fillColor=#f5f5f5;strokeColor=#666666;" parent="1" vertex="1">
          <mxGeometry x="1030" y="444" width="140" height="60" as="geometry" />
        </mxCell>
        <mxCell id="Uvq7DNgUjd8Dz1KJzSLP-3" value="" style="endArrow=classic;startArrow=classic;html=1;rounded=0;entryX=-0.009;entryY=0.564;entryDx=0;entryDy=0;exitX=0.999;exitY=0.089;exitDx=0;exitDy=0;exitPerimeter=0;entryPerimeter=0;" edge="1" parent="1" source="3a17f1ce550125da-2" target="3a17f1ce550125da-4">
          <mxGeometry width="50" height="50" relative="1" as="geometry">
            <mxPoint x="890" y="580" as="sourcePoint" />
            <mxPoint x="940" y="530" as="targetPoint" />
          </mxGeometry>
        </mxCell>
        <mxCell id="Uvq7DNgUjd8Dz1KJzSLP-4" value="JQ8900-16P音乐芯片" style="whiteSpace=wrap;html=1;shadow=1;fontSize=18;fillColor=#f5f5f5;strokeColor=#666666;" vertex="1" parent="1">
          <mxGeometry x="1030" y="520" width="140" height="60" as="geometry" />
        </mxCell>
        <mxCell id="Uvq7DNgUjd8Dz1KJzSLP-5" value="" style="endArrow=classic;startArrow=classic;html=1;rounded=0;entryX=-0.009;entryY=0.564;entryDx=0;entryDy=0;exitX=0.999;exitY=0.089;exitDx=0;exitDy=0;exitPerimeter=0;entryPerimeter=0;" edge="1" parent="1" target="Uvq7DNgUjd8Dz1KJzSLP-4">
          <mxGeometry width="50" height="50" relative="1" as="geometry">
            <mxPoint x="957" y="555" as="sourcePoint" />
            <mxPoint x="940" y="606" as="targetPoint" />
          </mxGeometry>
        </mxCell>
        <mxCell id="Uvq7DNgUjd8Dz1KJzSLP-6" value="JQ8900-16P音乐芯片" style="whiteSpace=wrap;html=1;shadow=1;fontSize=18;fillColor=#f5f5f5;strokeColor=#666666;" vertex="1" parent="1">
          <mxGeometry x="1030" y="520" width="140" height="60" as="geometry" />
        </mxCell>
        <mxCell id="Uvq7DNgUjd8Dz1KJzSLP-9" value="" style="endArrow=classic;startArrow=classic;html=1;rounded=0;entryX=-0.009;entryY=0.564;entryDx=0;entryDy=0;exitX=0.999;exitY=0.089;exitDx=0;exitDy=0;exitPerimeter=0;entryPerimeter=0;" edge="1" parent="1">
          <mxGeometry width="50" height="50" relative="1" as="geometry">
            <mxPoint x="957" y="629" as="sourcePoint" />
            <mxPoint x="1029" y="628" as="targetPoint" />
          </mxGeometry>
        </mxCell>
        <mxCell id="Uvq7DNgUjd8Dz1KJzSLP-10" value="DHT11温湿度传感器" style="whiteSpace=wrap;html=1;shadow=1;fontSize=18;fillColor=#f5f5f5;strokeColor=#666666;" vertex="1" parent="1">
          <mxGeometry x="1030" y="594" width="140" height="60" as="geometry" />
        </mxCell>
        <mxCell id="Uvq7DNgUjd8Dz1KJzSLP-11" value="" style="endArrow=classic;startArrow=classic;html=1;rounded=0;entryX=-0.009;entryY=0.564;entryDx=0;entryDy=0;exitX=0.999;exitY=0.089;exitDx=0;exitDy=0;exitPerimeter=0;entryPerimeter=0;" edge="1" parent="1">
          <mxGeometry width="50" height="50" relative="1" as="geometry">
            <mxPoint x="957" y="709" as="sourcePoint" />
            <mxPoint x="1029" y="708" as="targetPoint" />
          </mxGeometry>
        </mxCell>
        <mxCell id="Uvq7DNgUjd8Dz1KJzSLP-12" value="MQ2烟雾传感器" style="whiteSpace=wrap;html=1;shadow=1;fontSize=18;fillColor=#f5f5f5;strokeColor=#666666;" vertex="1" parent="1">
          <mxGeometry x="1030" y="674" width="140" height="60" as="geometry" />
        </mxCell>
        <mxCell id="Uvq7DNgUjd8Dz1KJzSLP-13" value="晶振电路" style="whiteSpace=wrap;html=1;shadow=1;fontSize=18;fillColor=#f5f5f5;strokeColor=#666666;" vertex="1" parent="1">
          <mxGeometry x="577" y="454" width="140" height="60" as="geometry" />
        </mxCell>
        <mxCell id="Uvq7DNgUjd8Dz1KJzSLP-15" value="复位电路" style="whiteSpace=wrap;html=1;shadow=1;fontSize=18;fillColor=#f5f5f5;strokeColor=#666666;" vertex="1" parent="1">
          <mxGeometry x="577" y="534" width="140" height="60" as="geometry" />
        </mxCell>
        <mxCell id="Uvq7DNgUjd8Dz1KJzSLP-17" value="DS1302时钟模块" style="whiteSpace=wrap;html=1;shadow=1;fontSize=18;fillColor=#f5f5f5;strokeColor=#666666;" vertex="1" parent="1">
          <mxGeometry x="577" y="614" width="140" height="60" as="geometry" />
        </mxCell>
        <mxCell id="Uvq7DNgUjd8Dz1KJzSLP-18" value="" style="endArrow=classic;startArrow=classic;html=1;rounded=0;entryX=0.006;entryY=0.107;entryDx=0;entryDy=0;entryPerimeter=0;" edge="1" parent="1" source="Uvq7DNgUjd8Dz1KJzSLP-17">
          <mxGeometry width="50" height="50" relative="1" as="geometry">
            <mxPoint x="720" y="645" as="sourcePoint" />
            <mxPoint x="788" y="644" as="targetPoint" />
          </mxGeometry>
        </mxCell>
        <mxCell id="Uvq7DNgUjd8Dz1KJzSLP-19" value="HC-08蓝牙模块" style="whiteSpace=wrap;html=1;shadow=1;fontSize=18;fillColor=#f5f5f5;strokeColor=#666666;" vertex="1" parent="1">
          <mxGeometry x="577" y="690" width="143" height="60" as="geometry" />
        </mxCell>
        <mxCell id="Uvq7DNgUjd8Dz1KJzSLP-20" value="" style="endArrow=classic;startArrow=classic;html=1;rounded=0;entryX=0.006;entryY=0.107;entryDx=0;entryDy=0;entryPerimeter=0;" edge="1" parent="1" source="Uvq7DNgUjd8Dz1KJzSLP-19">
          <mxGeometry width="50" height="50" relative="1" as="geometry">
            <mxPoint x="720" y="721" as="sourcePoint" />
            <mxPoint x="788" y="720" as="targetPoint" />
          </mxGeometry>
        </mxCell>
        <mxCell id="Uvq7DNgUjd8Dz1KJzSLP-21" value="" style="endArrow=classic;html=1;rounded=0;exitX=1;exitY=0.5;exitDx=0;exitDy=0;entryX=-0.004;entryY=0.109;entryDx=0;entryDy=0;entryPerimeter=0;" edge="1" parent="1" source="Uvq7DNgUjd8Dz1KJzSLP-13" target="3a17f1ce550125da-2">
          <mxGeometry width="50" height="50" relative="1" as="geometry">
            <mxPoint x="790" y="610" as="sourcePoint" />
            <mxPoint x="840" y="560" as="targetPoint" />
          </mxGeometry>
        </mxCell>
        <mxCell id="Uvq7DNgUjd8Dz1KJzSLP-22" value="" style="endArrow=classic;html=1;rounded=0;exitX=1;exitY=0.5;exitDx=0;exitDy=0;entryX=-0.004;entryY=0.109;entryDx=0;entryDy=0;entryPerimeter=0;" edge="1" parent="1">
          <mxGeometry width="50" height="50" relative="1" as="geometry">
            <mxPoint x="717" y="563.5" as="sourcePoint" />
            <mxPoint x="786" y="564.5" as="targetPoint" />
          </mxGeometry>
        </mxCell>
      </root>
    </mxGraphModel>
  </diagram>
</mxfile>
